<svg xmlns="http://www.w3.org/2000/svg" width="800" height="600" viewBox="0 0 800 600">
  <rect width="800" height="600" fill="#ffffff"/>
  
  <!-- Custom printing concept -->
  <g transform="translate(150, 100)">
    <!-- Designer workspace -->
    <rect x="0" y="0" width="500" height="300" rx="12" fill="#f8f9fa" stroke="#dee2e6" stroke-width="2"/>
    
    <!-- Design canvas -->
    <rect x="20" y="20" width="300" height="260" rx="8" fill="#ffffff" stroke="#ced4da" stroke-width="2"/>
    
    <!-- Design elements on canvas -->
    <rect x="40" y="40" width="120" height="60" rx="6" fill="#0d6efd" opacity="0.8"/>
    <circle cx="210" cy="70" r="25" fill="#28a745" opacity="0.8"/>
    <polygon points="250,40 290,60 270,100 230,100" fill="#dc3545" opacity="0.8"/>
    
    <rect x="40" y="120" width="260" height="8" rx="2" fill="#6c757d" opacity="0.6"/>
    <rect x="40" y="140" width="180" height="6" rx="2" fill="#adb5bd" opacity="0.6"/>
    <rect x="40" y="155" width="220" height="6" rx="2" fill="#adb5bd" opacity="0.6"/>
    
    <!-- Image placeholder -->
    <rect x="40" y="180" width="260" height="80" rx="6" fill="#e9ecef"/>
    <circle cx="170" cy="210" r="20" fill="#ced4da"/>
    <rect x="70" y="235" width="200" height="8" rx="2" fill="#dee2e6"/>
    <rect x="120" y="250" width="100" height="6" rx="2" fill="#dee2e6"/>
    
    <!-- Tools panel -->
    <rect x="340" y="20" width="140" height="260" rx="8" fill="#ffffff" stroke="#ced4da" stroke-width="1"/>
    
    <!-- Color palette -->
    <rect x="355" y="35" width="110" height="40" rx="4" fill="#f1f3f4"/>
    <circle cx="370" cy="50" r="8" fill="#0d6efd"/>
    <circle cx="395" cy="50" r="8" fill="#28a745"/>
    <circle cx="420" cy="50" r="8" fill="#dc3545"/>
    <circle cx="445" cy="50" r="8" fill="#ffc107"/>
    <circle cx="370" cy="65" r="8" fill="#6f42c1"/>
    <circle cx="395" cy="65" r="8" fill="#fd7e14"/>
    <circle cx="420" cy="65" r="8" fill="#20c997"/>
    <circle cx="445" cy="65" r="8" fill="#e83e8c"/>
    
    <!-- Tool buttons -->
    <rect x="355" y="90" width="25" height="25" rx="4" fill="#e9ecef"/>
    <rect x="385" y="90" width="25" height="25" rx="4" fill="#e9ecef"/>
    <rect x="415" y="90" width="25" height="25" rx="4" fill="#e9ecef"/>
    <rect x="445" y="90" width="25" height="25" rx="4" fill="#e9ecef"/>
    
    <!-- Typography options -->
    <rect x="355" y="130" width="110" height="60" rx="4" fill="#f8f9fa"/>
    <rect x="365" y="145" width="90" height="10" rx="2" fill="#495057"/>
    <rect x="365" y="165" width="70" height="8" rx="2" fill="#6c757d"/>
    <rect x="365" y="180" width="80" height="6" rx="2" fill="#adb5bd"/>
    
    <!-- Properties panel -->
    <rect x="355" y="210" width="110" height="70" rx="4" fill="#f1f3f4"/>
    <rect x="365" y="225" width="40" height="6" rx="2" fill="#6c757d"/>
    <rect x="365" y="240" width="60" height="6" rx="2" fill="#6c757d"/>
    <rect x="365" y="255" width="50" height="6" rx="2" fill="#6c757d"/>
    <rect x="365" y="270" width="70" height="6" rx="2" fill="#6c757d"/>
  </g>
  
  <text x="400" y="460" text-anchor="middle" font-family="'Segoe UI', Arial, sans-serif" font-size="32" fill="#495057" font-weight="600">Custom Printing</text>
  <text x="400" y="500" text-anchor="middle" font-family="'Segoe UI', Arial, sans-serif" font-size="18" fill="#6c757d">Tailored solutions</text>
</svg>
